<?xml version="1.0" standalone="no"?>
<!DOCTYPE svg PUBLIC "-//W3C//DTD SVG 20010904//EN"
 "http://www.w3.org/TR/2001/REC-SVG-20010904/DTD/svg10.dtd">
<svg version="1.0" xmlns="http://www.w3.org/2000/svg"
 width="300.000000pt" height="95.000000pt" viewBox="0 0 300.000000 95.000000"
 preserveAspectRatio="xMidYMid meet">
<metadata>
Created by potrace 1.10, written by Peter Selinger 2001-2011
</metadata>
<g transform="translate(0.000000,95.000000) scale(0.100000,-0.100000)"
fill="#000000" stroke="none">
<path d="M1550 896 c0 -9 -12 -16 -32 -18 -31 -3 -33 -6 -36 -45 l-3 -43 -84
0 -84 0 5 -28 c6 -28 5 -28 -59 -40 -35 -7 -73 -12 -84 -12 -18 0 -19 -6 -15
-90 3 -62 1 -90 -7 -90 -7 0 -11 21 -11 54 0 29 -3 69 -7 87 -7 33 -7 33 -14
9 -3 -14 -4 -44 -1 -67 5 -46 -3 -93 -17 -93 -5 0 -13 29 -16 65 -9 82 -25 95
-25 21 0 -31 -4 -56 -10 -56 -5 0 -7 -7 -4 -15 4 -8 1 -15 -5 -15 -6 0 -11 -6
-11 -14 0 -19 -22 -26 -80 -26 -29 0 -50 -5 -53 -12 -3 -7 -6 3 -7 22 -1 19
-4 27 -7 18 -8 -30 -23 -20 -24 15 -1 17 -3 24 -6 15 -3 -12 -14 -18 -31 -18
l-27 0 3 95 c2 63 0 95 -7 95 -6 0 -11 21 -11 50 0 28 -4 50 -10 50 -5 0 -10
-22 -10 -49 0 -31 -5 -51 -12 -54 -10 -3 -12 -29 -10 -95 l3 -92 -25 0 c-18 0
-26 6 -27 18 0 14 -2 14 -8 -3 -5 -11 -7 -23 -5 -27 3 -4 0 -9 -6 -13 -5 -3
-10 1 -10 9 0 9 -4 16 -10 16 -5 0 -10 -9 -10 -21 0 -19 -5 -20 -110 -17
l-110 3 0 -56 0 -56 -77 -7 c-42 -3 -114 -6 -160 -6 -45 0 -83 -3 -83 -7 0 -5
634 -8 1409 -8 776 0 1407 3 1403 7 -4 4 -59 9 -122 10 l-115 3 68 50 67 50
-40 3 c-27 2 -40 8 -40 18 0 9 -11 14 -35 14 -19 0 -35 5 -35 10 0 6 -18 10
-40 10 -22 0 -40 5 -40 11 0 6 -17 9 -43 8 -24 -2 -48 0 -53 4 -6 3 -31 3 -55
-1 -35 -6 -55 -3 -99 15 -66 27 -185 31 -250 8 -23 -8 -44 -15 -46 -15 -2 0
-4 33 -4 74 0 79 -13 131 -30 121 -6 -4 -8 -10 -5 -15 3 -5 1 -11 -5 -15 -6
-3 -10 -49 -10 -106 0 -68 -4 -99 -11 -99 -9 0 -10 43 -5 164 8 185 10 180
-74 169 l-40 -6 0 -116 0 -116 -45 0 -45 0 0 48 0 47 -40 0 c-39 0 -40 1 -40
35 0 24 -5 35 -15 35 -10 0 -15 10 -15 30 0 20 -5 30 -15 30 -10 0 -15 -10
-15 -30 0 -23 -4 -30 -20 -30 -11 0 -20 -6 -20 -14 0 -8 -7 -16 -15 -20 -8 -3
-15 -12 -15 -21 0 -8 -6 -15 -14 -15 -22 0 -13 52 10 61 17 7 17 8 -3 8 -13 1
-23 6 -23 12 0 6 9 9 20 6 18 -5 20 0 20 59 0 35 -2 64 -5 64 -3 0 -5 -6 -5
-14z m-3 -66 c0 -18 -6 -30 -13 -30 -8 0 -12 12 -12 30 1 17 6 30 13 30 6 0
12 -13 12 -30z m390 -136 c12 -109 16 -274 7 -298 -5 -13 -36 -15 -225 -15
-135 0 -221 4 -225 10 -3 6 -3 21 0 35 6 21 9 23 27 13 17 -9 25 -7 40 7 15
16 19 39 22 136 2 97 6 120 22 137 24 27 29 26 43 -4 7 -14 28 -35 47 -46 20
-12 35 -29 35 -40 0 -51 85 -77 131 -40 21 17 24 29 27 103 4 96 7 111 25 106
7 -3 16 -42 24 -104z m-467 -109 c0 -188 -1 -195 -20 -195 -11 0 -20 7 -20 15
0 8 -5 15 -10 15 -6 0 -10 24 -9 60 2 57 3 60 28 61 l26 2 -27 4 c-16 2 -28 9
-28 14 0 5 12 10 28 10 l27 2 -27 4 c-16 2 -28 9 -28 14 0 6 9 8 19 4 11 -3
22 -1 26 5 4 6 -16 10 -57 10 l-64 0 1 75 0 75 63 0 c40 0 61 4 57 10 -3 6 -1
10 4 10 8 0 11 -64 11 -195z m-165 -45 c0 -88 -3 -148 -10 -153 -5 -4 -66 -7
-135 -6 -173 2 -192 15 -121 86 35 35 45 39 80 36 53 -4 71 21 71 98 0 62 9
75 55 82 62 9 60 15 60 -143z m245 55 c0 -57 -4 -95 -10 -95 -5 0 -11 15 -11
33 -7 152 -6 157 7 157 11 0 14 -21 14 -95z m-160 -5 c0 -5 -13 -10 -30 -10
-16 0 -30 5 -30 10 0 6 14 10 30 10 17 0 30 -4 30 -10z m0 -30 c0 -5 -10 -11
-22 -11 l-23 -2 23 -4 c20 -4 22 -10 22 -64 0 -33 -4 -59 -10 -59 -5 0 -10 -7
-10 -15 0 -9 -9 -15 -21 -15 -19 0 -20 5 -18 83 1 45 4 85 6 90 6 11 53 9 53
-3z m829 1 c12 -8 13 -16 2 -48 -21 -66 -22 -69 -2 -29 17 35 20 37 31 20 11
-18 11 -18 5 1 -13 37 -10 50 13 53 15 2 22 -2 22 -13 0 -29 -31 -84 -51 -90
-10 -4 -19 -14 -19 -23 0 -27 -24 6 -44 61 -14 38 -15 51 -6 62 14 17 29 19
49 6z m-75 -10 c3 -5 0 -23 -8 -41 l-13 -32 -12 32 c-6 18 -11 37 -11 41 0 12
37 11 44 0z m-72 -28 c-27 -39 -31 -56 -15 -71 15 -15 9 -32 -11 -32 -9 0 -14
16 -14 48 -1 50 4 66 28 75 29 11 31 7 12 -20z m269 17 c20 0 7 -20 -22 -35
-29 -16 -31 -15 -27 2 2 10 10 17 18 15 11 -3 11 0 -1 14 -12 16 -12 17 4 11
10 -4 23 -7 28 -7z m-217 -102 c19 -12 -1 -19 -27 -9 -35 13 -43 45 -21 79
l18 27 10 -45 c5 -25 14 -48 20 -52z m52 25 c13 -32 12 -33 -12 -33 -31 0 -40
22 -23 62 8 19 15 26 17 17 3 -8 11 -29 18 -46z m358 28 c81 -14 166 -40 166
-50 0 -4 -10 -17 -23 -29 -21 -20 -35 -22 -221 -25 -162 -4 -199 -2 -203 9 -3
8 0 21 7 29 16 20 119 77 128 71 5 -3 14 -1 21 4 15 9 37 7 125 -9z m-554 -31
c0 -22 -4 -40 -10 -40 -5 0 -10 18 -10 40 0 22 5 40 10 40 6 0 10 -18 10 -40z
m-1250 3 c0 -8 -4 -11 -10 -8 -6 4 -11 -6 -11 -22 l-1 -28 -7 30 c-4 17 -6 33
-5 36 6 12 34 5 34 -8z m55 -22 c0 -8 -8 -15 -17 -17 -12 -1 -18 4 -18 18 0
13 6 18 18 16 9 -2 17 -10 17 -17z m-252 0 c4 -1 7 -6 7 -11 0 -7 -20 -10 -50
-9 -27 2 -50 7 -50 13 0 9 37 12 93 7z m147 -6 c3 -6 -21 -11 -62 -11 -45 -1
-68 2 -68 10 0 14 123 15 130 1z m270 -2 c0 -9 -17 -13 -50 -13 -36 0 -50 4
-50 14 0 10 13 13 50 12 33 -1 50 -5 50 -13z m-162 -40 c2 -8 -5 -13 -17 -13
-12 0 -21 6 -21 16 0 18 31 15 38 -3z m1406 11 c38 -15 9 -24 -74 -24 -73 0
-90 3 -90 15 0 12 15 15 74 15 41 0 81 -3 90 -6z m-1654 -14 c0 -5 -22 -10
-50 -10 -27 0 -50 4 -50 8 0 5 23 9 50 11 30 1 50 -2 50 -9z m145 0 c4 -6 -15
-10 -49 -10 -31 0 -56 5 -56 10 0 6 22 10 49 10 28 0 53 -4 56 -10z m265 0 c0
-5 -22 -10 -50 -10 -27 0 -50 5 -50 10 0 6 23 10 50 10 28 0 50 -4 50 -10z"/>
<path d="M1370 660 c-11 -7 -1 -10 35 -10 36 0 46 3 35 10 -8 5 -24 10 -35 10
-11 0 -27 -5 -35 -10z"/>
<path d="M1350 630 c0 -5 22 -10 49 -10 28 0 53 5 56 10 4 6 -15 10 -49 10
-31 0 -56 -4 -56 -10z"/>
<path d="M85 305 c-64 -23 -81 -56 -76 -145 5 -69 57 -110 141 -110 51 0 80
15 80 41 0 19 -1 19 -29 -2 -43 -31 -95 -21 -140 27 -30 33 -33 41 -28 81 7
60 40 94 100 100 40 5 49 2 71 -22 l26 -28 0 27 c0 15 -6 28 -12 30 -41 13
-98 13 -133 1z"/>
<path d="M251 298 c14 -26 11 -222 -3 -236 -9 -9 -5 -12 18 -12 l29 0 0 133 0
132 -27 0 c-21 0 -24 -3 -17 -17z"/>
<path d="M582 281 c12 -20 32 -52 45 -71 26 -39 32 -127 11 -148 -9 -9 -5 -12
18 -12 l29 0 -3 65 c-4 62 -2 69 37 131 23 36 41 66 41 67 0 1 -13 2 -30 2
-22 0 -29 -4 -25 -15 2 -8 -6 -35 -19 -59 l-23 -43 -27 46 c-20 34 -25 51 -17
60 8 9 2 12 -24 12 l-34 0 21 -35z"/>
<path d="M1387 305 c-109 -26 -117 -197 -12 -241 42 -17 116 -18 137 -1 11 7
18 31 20 65 3 51 3 52 -26 52 -24 0 -26 -2 -17 -14 7 -8 11 -32 9 -53 -3 -37
-4 -38 -46 -41 -39 -3 -47 1 -83 36 -31 32 -39 47 -39 76 0 48 22 89 55 104
50 23 125 9 125 -23 0 -8 5 -15 10 -15 6 0 10 13 10 29 0 28 -2 29 -51 33 -28
1 -70 -1 -92 -7z"/>
<path d="M1561 304 c6 -8 9 -60 7 -133 l-3 -121 68 0 c61 0 67 2 67 20 0 20
-1 20 -25 4 -21 -14 -31 -15 -50 -6 -24 11 -25 15 -25 120 0 59 4 112 9 118 6
5 -3 9 -24 10 -27 0 -32 -2 -24 -12z"/>
<path d="M2012 313 c-12 -3 -29 -15 -38 -28 -14 -21 -14 -27 0 -52 8 -15 33
-45 55 -67 46 -43 49 -55 23 -79 -26 -23 -58 -21 -76 5 -15 22 -16 22 -16 2 0
-46 58 -59 104 -23 41 33 35 69 -24 134 -54 59 -56 65 -38 83 17 17 44 15 62
-4 15 -14 17 -14 22 1 4 9 5 17 3 19 -9 7 -56 12 -77 9z"/>
<path d="M2206 309 c-59 -10 -96 -55 -96 -117 0 -59 16 -90 59 -119 34 -23 90
-30 139 -17 19 5 22 13 22 53 0 26 5 52 12 59 9 9 3 12 -27 11 -22 0 -34 -3
-27 -6 7 -3 12 -24 12 -54 l0 -49 -39 0 c-82 0 -141 76 -120 155 19 69 116 99
164 50 25 -24 26 -23 29 18 1 15 -74 25 -128 16z"/>
<path d="M2673 185 c32 -72 60 -131 62 -133 1 -1 15 29 31 68 16 38 31 70 34
70 3 0 18 -32 34 -71 15 -39 29 -69 31 -67 2 2 30 62 63 134 l59 130 -33 1
c-28 1 -31 -1 -23 -16 8 -12 1 -36 -24 -94 -19 -43 -38 -79 -42 -80 -4 -1 -20
28 -34 65 -14 37 -29 68 -32 68 -4 0 -9 -10 -13 -23 -3 -13 -16 -47 -28 -75
l-24 -53 -38 91 c-28 67 -35 94 -27 103 8 11 4 13 -22 13 l-33 -1 59 -130z"/>
<path d="M330 296 c0 -8 5 -18 10 -21 6 -3 10 -1 10 4 0 6 16 11 35 11 l35 0
0 -108 c0 -71 -4 -112 -12 -120 -9 -9 -5 -12 18 -12 l29 0 -3 120 -3 120 28 0
c16 0 34 -5 40 -11 7 -7 12 -4 16 10 5 20 1 21 -99 21 -84 0 -104 -3 -104 -14z"/>
<path d="M874 276 c-21 -21 -35 -45 -36 -62 -4 -85 13 -123 67 -148 93 -44
187 10 187 109 0 86 -50 135 -138 135 -39 0 -51 -5 -80 -34z m84 -93 l-2 -118
-5 110 -5 110 -6 -110 -5 -110 -32 32 c-29 28 -33 38 -33 85 1 67 26 102 88
117 1 1 1 -52 0 -116z m19 -66 c-2 -34 -3 -6 -3 63 0 69 1 97 3 62 2 -34 2
-90 0 -125z m57 142 c37 -43 37 -129 1 -164 -13 -14 -29 -25 -35 -25 -6 0 -10
40 -10 110 0 61 4 110 9 110 5 0 21 -14 35 -31z"/>
<path d="M1101 300 c12 -7 16 -31 18 -109 1 -58 -2 -108 -9 -120 -10 -19 -8
-21 18 -21 25 0 29 4 26 23 -14 104 -14 107 16 107 16 0 32 -5 35 -10 8 -13
25 -3 25 16 0 10 -12 14 -43 14 l-43 0 1 45 c0 43 1 45 31 45 16 0 35 -5 42
-12 9 -9 12 -7 12 10 0 21 -4 22 -72 22 -49 -1 -68 -4 -57 -10z"/>
<path d="M1801 217 c-19 -50 -42 -109 -52 -130 -17 -37 -17 -37 4 -37 16 0 22
7 24 23 0 12 6 34 12 49 9 23 17 28 46 28 31 0 37 -4 50 -37 9 -20 13 -43 11
-50 -4 -9 5 -13 30 -13 31 0 34 2 21 14 -8 8 -34 63 -57 123 -24 59 -46 111
-49 115 -4 4 -22 -34 -40 -85z m42 -45 c-34 -5 -37 1 -22 45 l12 38 17 -40 17
-40 -24 -3z"/>
<path d="M2438 294 c-58 -31 -78 -136 -37 -188 50 -64 144 -74 200 -20 54 51
48 148 -12 198 -36 30 -106 35 -151 10z m60 -111 l-2 -118 -6 110 -6 110 -2
-108 c-2 -106 -2 -108 -23 -97 -29 16 -52 77 -46 123 7 48 38 85 85 96 1 1 1
-52 0 -116z m99 49 c28 -66 -7 -162 -58 -162 -16 0 -18 13 -21 111 -2 61 -1
112 1 114 11 12 65 -31 78 -63z"/>
<path d="M2534 180 c0 -52 1 -74 3 -47 2 26 2 68 0 95 -2 26 -3 4 -3 -48z"/>
</g>
</svg>
