<?xml version="1.0" standalone="no"?>
<!DOCTYPE svg PUBLIC "-//W3C//DTD SVG 20010904//EN"
 "http://www.w3.org/TR/2001/REC-SVG-20010904/DTD/svg10.dtd">
<svg version="1.0" xmlns="http://www.w3.org/2000/svg"
 width="300.000000pt" height="300.000000pt" viewBox="0 0 300.000000 300.000000"
 preserveAspectRatio="xMidYMid meet">
<metadata>
Created by potrace 1.10, written by Peter Selinger 2001-2011
</metadata>
<g transform="translate(0.000000,300.000000) scale(0.100000,-0.100000)"
fill="#000000" stroke="none">
<path d="M1519 2633 c-13 -3 -14 -15 -8 -71 4 -37 10 -115 13 -174 l7 -107
-35 -15 c-30 -13 -36 -20 -36 -46 0 -27 3 -30 24 -24 19 4 25 1 30 -20 3 -14
13 -26 21 -26 21 0 19 -19 -6 -59 -11 -19 -27 -68 -34 -110 -31 -168 -44 -184
-113 -144 -49 29 -59 24 -64 -27 -2 -27 -8 -35 -28 -40 -14 -3 -31 -18 -38
-34 -8 -15 -15 -26 -17 -24 -2 2 -20 46 -40 98 -30 79 -45 104 -92 152 -32 32
-84 71 -120 89 -38 19 -82 53 -108 81 l-44 49 -3 -38 -3 -38 -19 35 -20 35
-20 -89 c-18 -75 -27 -94 -60 -127 -26 -27 -47 -39 -66 -39 -61 0 -106 -76
-65 -110 8 -7 15 -19 15 -26 0 -8 14 -17 30 -21 17 -3 39 -18 51 -34 28 -40
96 -78 153 -85 26 -4 49 -12 51 -18 1 -6 16 -63 33 -126 28 -103 31 -124 25
-208 l-6 -92 40 -48 c41 -48 41 -48 52 -169 6 -67 11 -170 11 -230 l0 -108
-53 -67 c-47 -61 -55 -67 -89 -68 -28 0 -38 -5 -43 -20 -4 -12 -31 -37 -61
-57 -43 -29 -94 -87 -94 -109 0 -2 387 -4 860 -4 473 0 860 2 860 4 0 24 -30
68 -67 96 -25 19 -51 50 -59 68 -9 21 -21 32 -34 32 -24 0 -25 24 -9 234 l10
141 -50 54 c-35 36 -51 62 -51 80 0 14 13 72 30 129 51 179 49 223 -16 354
-29 57 -29 54 -4 61 53 14 133 -123 150 -253 6 -47 21 -120 34 -163 l22 -77
21 67 c41 130 47 167 47 292 1 149 -15 197 -75 219 -36 13 -190 9 -260 -7 -25
-6 -74 -2 -154 11 -77 13 -130 17 -154 12 -20 -4 -40 -8 -44 -8 -15 -1 -37 77
-36 129 0 28 6 61 14 75 30 52 14 178 -31 237 -28 36 -29 50 -9 77 8 11 15 30
15 43 0 17 8 27 28 34 15 5 34 12 42 16 9 3 -7 12 -41 20 l-56 14 -68 162
c-37 89 -68 162 -69 163 0 0 -8 -1 -17 -3z m79 -228 c23 -54 40 -100 39 -101
-1 -1 -19 -5 -39 -9 l-38 -7 0 43 c0 24 -3 76 -6 114 -4 39 -4 68 -2 65 3 -3
24 -50 46 -105z m17 -155 c-44 -17 -127 -28 -114 -15 9 8 113 34 139 34 18 0
11 -5 -25 -19z m40 -57 c-12 -17 -15 -37 -12 -59 6 -38 7 -37 -27 -24 -16 6
-26 17 -26 29 0 11 -9 25 -20 31 -25 13 -26 30 -2 31 9 0 35 8 57 18 45 20 55
12 30 -26z m-684 -173 c58 -32 97 -63 126 -98 58 -70 68 -111 53 -199 -10 -60
-15 -72 -37 -82 -14 -6 -28 -10 -31 -7 -2 3 -8 40 -13 83 -15 149 -25 179 -78
223 -26 22 -54 52 -62 66 l-14 26 -6 -23 c-6 -23 -7 -23 -14 -4 -5 11 -17 32
-28 47 -11 14 -16 31 -12 38 5 8 10 6 19 -5 7 -10 50 -38 97 -65z m615 53 c-3
-10 -8 -40 -12 -68 -4 -27 -17 -71 -30 -97 -27 -53 -52 -76 -40 -37 4 13 13
56 20 94 7 39 19 82 26 98 15 30 45 38 36 10z m-713 -105 c27 -61 47 -81 47
-49 0 31 18 26 60 -16 32 -33 38 -47 48 -113 6 -41 13 -96 15 -122 5 -48 4
-48 -27 -48 -40 0 -106 18 -106 29 0 5 7 46 16 91 8 45 13 89 10 96 -8 21 -52
16 -151 -16 -118 -39 -147 -39 -176 1 -19 27 -20 32 -7 46 14 13 34 20 66 22
7 1 35 22 62 47 38 35 50 54 55 87 4 23 9 45 12 50 7 12 50 -46 76 -105z m812
93 c3 -5 -13 -56 -36 -113 -47 -118 -85 -162 -148 -172 -22 -3 -46 -9 -55 -12
-9 -3 -16 -1 -16 5 0 6 24 22 53 35 65 29 103 86 119 179 6 34 12 68 14 75 4
14 60 17 69 3z m16 -165 c-6 -7 -15 -36 -22 -64 -12 -60 -19 -67 -45 -48 -14
10 -16 17 -7 27 6 8 16 32 23 54 7 22 22 60 34 85 l20 45 4 -43 c2 -24 -1 -49
-7 -56z m-795 -91 c-3 -8 -11 -44 -17 -80 -6 -36 -14 -65 -18 -65 -13 0 -125
95 -124 105 1 9 121 52 152 54 8 1 11 -5 7 -14z m494 -31 c0 -8 -3 -14 -7 -14
-17 1 -43 28 -43 44 0 15 2 15 25 0 14 -9 25 -23 25 -30z m258 -34 c21 0 38
-32 27 -50 -4 -6 -30 -22 -58 -37 -65 -32 -160 -96 -188 -126 -21 -23 -21 -30
-1 -112 6 -22 13 -60 16 -85 6 -44 5 -46 -24 -57 -38 -14 -35 -21 -51 128
l-12 116 46 75 c25 41 49 92 52 112 7 33 11 37 46 42 21 4 46 12 56 19 15 11
22 10 44 -6 15 -10 36 -19 47 -19z m-896 -26 c36 -33 43 -44 26 -39 -27 8 -90
56 -96 73 -8 25 23 10 70 -34z m626 9 c20 -15 39 -28 41 -30 2 -2 -19 -41 -48
-89 l-53 -85 12 -72 c6 -40 13 -87 16 -104 l5 -33 -65 0 c-76 0 -91 13 -53 46
37 32 35 52 -5 56 -30 3 -33 6 -32 35 1 17 13 57 28 88 14 31 28 80 31 108 10
85 14 95 38 100 43 8 49 7 85 -20z m-158 -83 c0 -17 -16 -68 -35 -115 -39 -93
-39 -119 0 -137 l24 -11 -20 -26 c-37 -50 -1 -74 114 -76 42 0 49 -3 54 -24 9
-36 -9 -75 -35 -79 -13 -2 -26 -10 -29 -18 -3 -8 -19 -14 -37 -14 -37 0 -125
-27 -143 -44 -7 -7 -14 -76 -17 -201 -8 -228 -15 -281 -44 -301 -14 -10 -22
-26 -22 -44 0 -30 -22 -50 -54 -50 -26 0 -19 17 30 77 l47 57 -6 211 c-4 115
-11 227 -16 247 -5 20 -25 56 -46 80 l-37 43 7 87 c6 76 3 100 -20 182 -14 53
-28 102 -31 110 -5 12 7 14 73 9 43 -3 80 -8 83 -10 3 -3 7 -32 10 -66 3 -34
9 -62 15 -61 5 0 25 19 42 43 27 34 33 52 33 91 0 38 4 51 23 63 28 19 37 13
37 -23z m500 -76 c0 -87 18 -156 54 -209 19 -27 44 -71 57 -96 21 -46 22 -47
3 -72 -41 -54 -49 -53 -127 13 -77 66 -130 96 -188 105 l-36 5 -17 83 c-9 45
-18 88 -19 96 -2 17 88 82 183 133 65 35 65 35 77 14 7 -11 12 -44 13 -72z
m210 66 c101 -17 131 -19 178 -10 31 6 100 10 151 8 l95 -3 20 -35 c18 -30 21
-51 20 -140 0 -100 -18 -225 -34 -243 -10 -11 -18 25 -29 125 -13 111 -92 260
-146 274 -28 7 -98 -24 -91 -40 3 -6 22 -49 42 -96 48 -109 48 -148 0 -311
-42 -145 -42 -152 28 -227 l44 -47 -10 -170 c-11 -208 -14 -219 -53 -223 -28
-4 -29 -3 -14 15 39 44 50 81 44 151 -21 237 -43 291 -156 394 -62 56 -83 82
-105 134 -16 35 -31 64 -35 64 -4 0 -19 24 -34 53 -15 28 -38 66 -51 82 -24
31 -44 124 -44 203 0 35 4 44 23 52 30 12 21 12 157 -10z m-800 -36 c0 -14 -5
-35 -12 -47 -11 -21 -12 -20 -19 18 -8 45 -5 55 17 55 8 0 14 -10 14 -26z
m435 -335 c17 -5 48 -25 70 -43 l40 -34 -30 -12 c-36 -14 -152 -40 -180 -40
-20 0 -19 1 1 18 12 9 29 29 38 43 15 24 15 27 -4 44 -11 10 -20 24 -20 32 0
14 20 12 85 -8z m-105 -34 c16 -30 8 -41 -57 -84 -37 -25 -49 -28 -65 -20 -18
10 -17 12 14 27 25 13 34 25 38 51 3 22 12 37 25 42 30 11 31 11 45 -16z m497
-166 c21 -18 36 -48 55 -107 l26 -82 -23 -108 c-32 -153 -45 -190 -71 -207
-12 -8 -24 -27 -26 -42 -2 -23 -8 -29 -35 -31 -39 -4 -41 3 -9 37 13 15 38 67
56 116 27 76 32 102 31 169 -1 56 -7 92 -21 120 -10 23 -35 83 -55 134 -29 75
-34 96 -24 108 10 12 16 7 40 -34 15 -27 41 -60 56 -73z m-224 75 c24 -20 37
-24 62 -20 30 6 32 4 52 -46 12 -29 27 -71 34 -93 6 -22 20 -56 30 -75 30 -55
25 -147 -12 -252 -49 -136 -10 -125 -456 -133 l-383 -8 0 26 c0 14 11 37 24
50 29 29 37 83 45 317 l6 175 50 17 c65 21 114 22 137 1 15 -13 24 -14 56 -5
20 6 72 14 115 17 43 3 105 16 140 29 34 13 64 24 66 25 2 0 17 -11 34 -25z
m338 -181 c39 -62 56 -124 68 -253 9 -98 9 -106 -11 -142 l-22 -38 -73 0 c-72
0 -73 0 -54 19 22 22 42 85 71 230 22 108 22 113 -18 219 -10 28 10 9 39 -35z
m-271 -467 c0 -2 -3 -11 -6 -20 -5 -14 -57 -16 -475 -16 -397 0 -468 2 -463
14 4 12 75 14 417 15 226 1 413 4 416 6 5 6 111 7 111 1z m258 -16 c-10 -16
-24 -20 -65 -20 -38 0 -53 4 -53 13 0 23 11 27 72 27 56 0 58 -1 46 -20z m182
16 c0 -2 3 -11 6 -20 5 -14 -5 -16 -82 -14 -69 1 -76 3 -31 5 39 3 60 9 64 19
4 12 43 21 43 10z m76 -93 c18 -16 34 -31 34 -35 0 -5 -366 -8 -812 -8 l-813
1 40 34 40 35 738 0 738 0 35 -27z"/>
</g>
</svg>
